<?xml version="1.0" encoding="utf-8"?>
<!-- Generator: Adobe Illustrator 27.1.0, SVG Export Plug-In . SVG Version: 6.00 Build 0)  -->
<svg version="1.1" id="Calque_1" xmlns="http://www.w3.org/2000/svg" xmlns:xlink="http://www.w3.org/1999/xlink" x="0px" y="0px"
	 viewBox="0 0 481.6 480.3" style="enable-background:new 0 0 481.6 480.3;" xml:space="preserve">
<style type="text/css">
	.st0{fill:#D84556;}
	.st1{fill:#FFFFFF;}
</style>
<g>
	<rect x="0" y="0" class="st0" width="480.3" height="480.3"/>
	<g>
		<path class="st1" d="M257.8,277.2h-11.2l0-115.4c0-2-1.6-3.6-3.5-3.6l-59.7,17.9c-2.7,0.7-3.5,3.2-3.5,5.2l0,34.3
			c0,2,1.6,3.6,3.5,3.6L194,216l0,61.3h-11.2c-2,0-3.5,1.6-3.5,3.6l0,35.9c0,2,1.6,3.6,3.5,3.6l75.1,0c2,0,3.5-1.6,3.5-3.6l0-35.9
			C261.3,278.8,259.7,277.2,257.8,277.2z"/>
		<path class="st1" d="M458.8,295C458.7,294.9,458.7,294.8,458.8,295L458.8,295z"/>
		<path class="st1" d="M220.2,153.1c14.5,0,26.3-11.8,26.3-26.3c0-14.5-11.8-26.3-26.3-26.3c-14.5,0-26.3,11.8-26.3,26.3
			C193.9,141.3,205.7,153.1,220.2,153.1z"/>
		<path class="st1" d="M158.3,158.2h-27.5c0-0.9,0-1.8,0-2.8l0-35.6c0,0,0.9-10-9.8-6.3c-10.7,3.7-35.2,10.8-35.2,10.8
			s-5.7,0.8-5.7,8.2c0,6.2,0.1,9.8,0.2,25.6l-13,0c-2,0-3.5,1.6-3.5,3.6l0,35.9c0,2,1.6,3.6,3.5,3.6h13.2c0,19.1,0.1,44.3,0.1,78.2
			c0,0-3.2,63.4,76.8,32.2c0,0,4-2.2,4.3-5.7l0-34.7c0,0,0-5.3-4.9-2.9c0,0-26,11.9-26-5.1c0-13.7,0-14.3,0-61.9l27.5,0
			c2,0,3.5-1.6,3.5-3.6l0-35.9C161.8,159.8,160.2,158.2,158.3,158.2z"/>
		<path class="st1" d="M355.5,158.2c-8.6,0-16.8,1.7-24.4,4.9v-1.5c0-2-1.6-3.6-3.5-3.6l-60.5,0c-2,0-3.5,1.6-3.5,3.6v35.9
			c0,2,1.6,3.6,3.5,3.6h11.5l0,139.3H267c-2,0-3.5,1.6-3.5,3.6l0,35.9c0,2,1.6,3.6,3.5,3.6l75.3,0c2,0,3.5-1.6,3.5-3.6V344
			c0-2-1.6-3.6-3.5-3.6h-11.2l0-25.2c7.6,3.2,15.8,4.9,24.4,4.9c39.1,0,70.8-36.3,70.8-81C426.2,194.5,394.6,158.2,355.5,158.2z
			 M356.3,278.2c-14-0.1-25.3-17.6-25.2-39.1c0.1-21.5,11.5-38.9,25.5-38.9c14,0.1,25.3,17.6,25.2,39.1
			C381.7,260.9,370.3,278.3,356.3,278.2z"/>
	</g>
</g>
</svg>
